<?xml version="1.0" standalone="no"?>
<!DOCTYPE svg PUBLIC "-//W3C//DTD SVG 20010904//EN"
 "http://www.w3.org/TR/2001/REC-SVG-20010904/DTD/svg10.dtd">
<svg version="1.0" xmlns="http://www.w3.org/2000/svg"
 width="620.000000pt" height="571.000000pt" viewBox="0 0 620.000000 571.000000"
 preserveAspectRatio="xMidYMid meet">

<g transform="translate(0.000000,571.000000) scale(0.100000,-0.100000)"
fill="#000000" stroke="none">
<path d="M4281 5305 c-98 -22 -271 -81 -426 -147 -261 -111 -558 -273 -590
-322 -19 -29 -78 -200 -105 -305 -17 -67 -19 -89 -10 -121 21 -77 127 -296
208 -429 21 -34 21 -35 2 -48 -11 -8 -20 -23 -20 -33 0 -34 31 -98 49 -103 10
-2 26 -28 39 -65 56 -153 207 -223 339 -157 47 24 73 52 109 120 22 40 56 50
119 36 47 -11 60 -18 74 -44 26 -49 92 -117 136 -140 33 -18 57 -22 140 -22
87 0 107 3 155 26 31 14 72 40 91 57 41 36 84 111 94 164 6 31 11 37 40 42 40
8 51 20 74 82 l18 46 6 -56 c3 -31 -1 -116 -8 -189 -18 -159 -18 -200 -5 -192
18 11 127 203 150 266 l23 61 36 -7 c83 -16 143 -74 161 -158 13 -56 12 -60
-36 -207 -8 -23 160 155 222 236 31 40 60 91 68 120 69 234 81 613 25 714 -38
67 -128 117 -261 144 -42 9 -100 16 -128 16 -27 0 -50 4 -50 9 0 18 67 62 125
82 71 25 193 40 271 33 l59 -5 -25 21 c-94 83 -333 140 -397 95 -11 -8 -33
-44 -49 -80 -16 -36 -32 -65 -36 -65 -4 0 -21 26 -37 58 -88 174 -250 366
-357 424 -57 31 -153 58 -199 57 -16 0 -59 -7 -94 -14z m-106 -1015 c221 -51
364 -66 487 -51 50 6 93 9 93 8 3 -4 55 -272 55 -284 0 -7 -16 -5 -48 7 -127
48 -357 65 -475 34 -63 -16 -132 -47 -204 -93 -41 -25 -43 -29 -43 -72 l0 -47
-42 10 c-24 5 -58 7 -75 4 -32 -5 -33 -3 -33 29 0 26 -8 40 -37 65 -52 46
-152 90 -217 97 -31 3 -56 9 -56 12 0 3 3 16 6 29 6 20 13 22 64 22 31 0 92
-10 136 -21 136 -37 134 -37 134 4 0 64 -81 109 -200 110 -30 0 -69 -3 -86 -7
l-31 -7 8 48 c22 119 29 125 139 142 105 16 239 3 425 -39z m348 -341 c109
-17 111 -18 104 -100 -7 -86 -33 -144 -84 -190 -56 -50 -126 -72 -218 -67 -62
3 -80 8 -116 33 -53 37 -80 81 -96 159 -14 69 -16 66 82 114 52 26 82 35 190
56 37 7 66 6 138 -5z m-798 -49 c73 -35 90 -48 99 -77 15 -46 -6 -44 -59 6
-46 44 -59 51 -94 51 -48 0 -60 -13 -26 -28 19 -9 25 -19 25 -45 0 -59 46 -97
78 -65 7 7 12 20 12 30 0 21 1 21 35 6 30 -14 31 -27 5 -79 -27 -53 -72 -79
-134 -79 -105 0 -183 87 -193 213 -5 67 0 66 37 -5 24 -45 24 -48 5 -48 -20 0
-19 -13 4 -34 18 -17 19 -14 31 71 17 130 14 123 68 117 26 -3 74 -19 107 -34z
m1000 15 c0 -13 -8 -21 -22 -23 -19 -3 -23 1 -23 23 0 22 4 26 23 23 14 -2 22
-10 22 -23z m-1325 -25 c0 -11 -6 -20 -14 -20 -18 0 -29 16 -21 30 11 18 35
11 35 -10z"/>
<path d="M4215 4164 c-55 -14 -106 -38 -115 -54 -14 -26 -12 -63 3 -85 13 -17
17 -17 98 6 70 19 107 23 224 23 131 1 145 -1 228 -31 92 -32 96 -28 33 27
-90 77 -189 112 -336 116 -63 1 -124 1 -135 -2z"/>
<path d="M4353 3873 c-7 -2 -13 -14 -13 -24 0 -27 -26 -76 -47 -88 -17 -9 -16
-12 6 -35 64 -68 175 11 131 93 -8 16 -5 20 22 25 17 3 41 6 54 6 13 0 24 4
24 9 0 15 -145 27 -177 14z"/>
<path d="M343 3603 c-35 -7 -81 -67 -88 -115 -3 -24 -5 -423 -3 -888 3 -926 0
-881 63 -920 31 -19 52 -20 454 -20 l421 0 0 -185 0 -185 -280 0 -280 0 0 -70
0 -70 2024 0 2023 0 27 138 c15 75 30 148 33 162 4 17 -8 6 -39 -36 -25 -33
-58 -70 -73 -82 -60 -47 -297 -102 -600 -138 -115 -14 -226 -18 -476 -19
l-325 0 -38 30 c-21 17 -49 39 -62 50 -22 17 -29 18 -72 6 -26 -6 -70 -28 -97
-47 -50 -34 -85 -44 -85 -23 0 20 42 70 83 100 22 16 35 29 28 29 -19 0 -70
-29 -137 -76 -75 -53 -114 -65 -114 -36 0 11 12 35 27 52 l27 32 -53 -27 c-53
-26 -81 -27 -81 -3 1 19 77 81 157 129 l68 41 -45 -6 c-103 -12 -204 -79 -241
-161 l-19 -40 0 31 0 32 -277 7 c-153 4 -342 5 -420 3 l-143 -5 0 183 0 184
810 0 c683 0 816 2 845 14 40 17 75 68 75 111 0 25 19 48 120 143 66 63 120
109 120 103 0 -12 -106 -317 -174 -499 -25 -68 -46 -125 -46 -127 0 -30 469
109 692 205 59 25 102 51 119 70 l26 30 39 -31 c53 -43 205 -115 279 -133 84
-21 195 -29 226 -17 21 8 41 43 113 203 216 475 265 608 273 734 10 160 -32
261 -130 308 -77 38 -142 42 -282 17 -181 -31 -187 -34 -234 -96 -50 -66 -132
-130 -200 -156 -59 -22 -168 -26 -195 -6 -25 18 -31 83 -12 137 28 80 25 84
-59 109 -86 26 -120 23 -228 -17 -78 -29 -234 -125 -353 -218 -46 -35 -85 -64
-88 -64 -3 0 -6 228 -6 508 0 559 1 549 -63 596 l-28 21 -1502 1 c-826 1
-1512 -1 -1524 -3z"/>
<path d="M4761 3260 c-26 -36 -49 -115 -37 -128 7 -6 108 52 168 96 l49 37
-48 5 c-26 3 -58 11 -70 18 -30 17 -29 17 -62 -28z"/>
<path d="M3995 3240 c-20 -5 6 -8 77 -9 58 0 115 -3 125 -6 10 -3 5 1 -12 9
-32 16 -138 19 -190 6z"/>
</g>
</svg>
